<svg width="200" height="200" viewBox="0 0 200 200" fill="none" xmlns="http://www.w3.org/2000/svg" id="Scribble-32.svg" onclick="copyToClipboard(this)"><path d="M83.5859 63.214C83.2694 64.2981 83.1113 65.3474 82.953 66.494C82.7947 67.6328 82.7161 68.8356 82.6369 70.0424C82.5578 71.2499 82.4785 72.4536 82.4785 73.6121C82.5576 74.7896 82.5576 75.8531 82.8742 77.1659C83.1907 78.7067 84.0612 80.0551 85.2482 80.9722C86.4352 81.8973 87.9382 82.3776 89.5209 82.304C91.0244 82.2392 92.4493 81.6212 93.5571 80.5901C94.7441 79.5669 95.456 78.1425 95.6143 76.5408C96.0891 72.4607 96.4849 68.3806 96.9597 64.3005C97.751 57.2118 84.9313 55.7905 84.14 62.8761C83.6652 66.953 83.1906 71.03 82.7158 75.1077C86.9889 74.8988 91.2623 74.6907 95.5355 74.4826C95.5355 74.5071 95.5355 74.5174 95.5355 74.5174C95.5355 74.5174 95.5355 74.5055 95.5355 74.4849C95.5355 74.4446 95.5355 74.3678 95.5355 74.2673C95.5355 74.0655 95.4559 73.768 95.4559 73.4198C95.4559 72.7218 95.5355 71.8253 95.5355 70.9168C95.6146 70.0084 95.7724 69.0793 95.8515 68.2983C95.9307 67.5252 96.0893 66.8668 96.1684 66.6816C97.1971 63.2425 95.1395 59.6475 91.6576 58.6892C88.1758 57.7309 84.5355 59.7409 83.5859 63.214Z" fill="black"/><path d="M147.763 79.1571C149.108 76.8931 150.454 74.6283 151.878 72.3643C153.698 69.2939 152.669 65.3056 149.662 63.4618C146.576 61.6188 142.54 62.6127 140.72 65.6887C139.375 67.9566 138.03 70.2238 136.684 72.4917C132.965 78.6309 144.044 85.2851 147.763 79.1571Z" fill="black"/><path d="M84.5349 136.626C85.6428 136.823 86.7505 137.019 87.9375 137.215C91.3402 137.807 94.5057 135.413 95.2179 132.089C95.851 128.765 93.8726 125.326 90.4699 124.555C89.362 124.298 88.1752 124.041 87.0673 123.785C83.5855 122.982 80.1035 125.375 79.3913 128.921C78.6791 132.467 80.9739 136.011 84.5349 136.626Z" fill="black"/><path d="M145.233 135.694C145.629 132.313 146.025 128.932 146.342 125.553C146.579 123.906 146.104 122.335 145.233 121.091C144.363 119.841 143.017 118.927 141.514 118.564C140.01 118.192 138.428 118.375 137.083 119.069C135.658 119.755 134.55 120.938 133.996 122.454C132.493 126.289 130.989 130.124 129.407 133.96C126.874 140.564 138.744 145.281 141.356 138.687C142.938 134.858 144.442 131.028 145.946 127.199C141.831 126.166 137.716 125.133 133.522 124.1C133.205 127.478 132.809 130.856 132.414 134.234C131.939 137.785 134.55 140.992 138.111 141.395C141.672 141.798 144.838 139.246 145.233 135.694Z" fill="black"/><path d="M110.807 104.457C111.361 105.039 111.994 105.621 112.548 106.203C115.397 109.01 120.541 103.935 117.692 101.063C117.138 100.467 116.505 99.872 115.951 99.2761C114.526 97.8304 112.232 97.847 110.807 99.2777C109.383 100.708 109.304 103.044 110.807 104.457Z" fill="black"/><path d="M171.978 107.345C172.295 106.541 172.533 105.738 172.849 104.934C173.482 103.042 172.453 100.997 170.554 100.367C168.655 99.7367 166.598 100.76 165.964 102.652C165.727 103.454 165.411 104.256 165.173 105.058C164.54 106.95 165.568 108.994 167.468 109.626C169.367 110.257 171.345 109.236 171.978 107.345Z" fill="black"/><path d="M104.558 169.201C105.033 167.856 105.587 166.513 106.141 165.168C107.565 161.462 100.918 158.825 99.4145 162.497C98.8605 163.828 98.3069 165.159 97.753 166.491C97.0408 168.352 97.9109 170.482 99.8101 171.23C101.709 171.978 103.846 171.078 104.558 169.201Z" fill="black"/><path d="M41.0132 121.729C42.2793 120.967 43.6246 120.205 44.9698 119.444C46.4733 118.59 46.3149 116.296 45.6027 114.994C44.8114 113.693 42.992 112.359 41.4884 113.185C40.1432 113.922 38.7974 114.659 37.4522 115.396C35.6321 116.358 35.0783 118.586 36.0279 120.335C36.9775 122.084 39.2722 122.724 41.0132 121.729Z" fill="black"/><path d="M55.335 50.0966C55.0184 50.8998 54.6225 51.7038 54.2268 52.5078C52.565 56.1123 59.0538 59.1368 60.7947 55.5489C61.1112 54.7473 61.5072 53.9456 61.9029 53.1448C62.7733 51.343 61.9818 49.1929 60.1618 48.3517C58.3417 47.5097 56.2054 48.2868 55.335 50.0966Z" fill="black"/><path d="M121.81 29.8707C121.335 31.4763 120.781 33.0819 120.306 34.6875C119.198 38.5167 126.082 40.594 127.269 36.7671C127.744 35.1623 128.219 33.5574 128.694 31.9518C129.327 30.0352 128.219 28.0142 126.32 27.4397C124.341 26.8652 122.364 27.9525 121.81 29.8707Z" fill="black"/><path d="M175.699 66.9225C176.332 66.5475 176.965 66.1732 177.598 65.7981C179.102 64.9348 178.864 62.6241 178.152 61.3469C177.36 60.0697 175.462 58.7323 174.037 59.5956C173.325 59.9699 172.692 60.3442 172.059 60.7185C170.635 61.5811 170.793 63.8918 171.584 65.1705C172.296 66.4493 174.195 67.7851 175.699 66.9225Z" fill="black"/><path d="M153.776 155.477C155.359 155.876 156.942 156.275 158.524 156.675C160.345 157.143 162.086 155.855 162.561 154.109C163.115 152.363 162.165 150.335 160.424 149.798C158.841 149.342 157.337 148.885 155.755 148.428C153.856 147.855 151.798 149.034 151.244 150.98C150.69 152.927 151.877 154.976 153.776 155.477Z" fill="black"/><path d="M56.2846 165.678C58.0255 162.933 59.7669 160.188 61.5078 157.443C63.6444 154.079 57.6302 150.202 55.4144 153.525C53.6735 156.239 51.8536 158.952 50.0335 161.664C48.9257 163.367 49.4791 165.664 51.1409 166.772C52.8819 167.88 55.1767 167.4 56.2846 165.678Z" fill="black"/><path d="M31.8346 80.8099C34.2878 80.7886 36.4244 81.3939 39.3523 82.3388C41.1724 82.9109 42.9923 81.6187 43.5462 79.911C44.1001 78.2033 43.3879 76.0738 41.5679 75.4819C38.6399 74.5118 35.633 73.5004 31.8346 73.4791C29.7772 73.4672 28.1152 75.1258 28.1152 77.15C28.1152 79.1743 29.7772 80.8273 31.8346 80.8099Z" fill="black"/><path d="M96.2464 25.3441C96.5629 24.4341 96.8003 23.5241 97.0377 22.614C94.7429 22.3774 92.369 22.14 90.0742 21.9034C90.2324 24.0274 90.0745 26.3515 89.9953 28.8846C89.9162 30.8748 91.4989 32.5342 93.5563 32.5896C95.5346 32.645 97.1961 31.0766 97.1961 29.0856C97.2753 26.6902 97.4335 24.0938 97.1961 21.2973C97.0379 19.5801 95.6138 18.1565 93.952 18.0227C92.3693 17.8249 90.6286 18.9375 90.1538 20.5866C89.9164 21.4959 89.5998 22.4051 89.3624 23.3152C88.2546 27.1215 95.1385 29.1473 96.2464 25.3441Z" fill="black"/><path d="M159.949 41.9067C162.165 39.2731 163.669 37.6003 165.726 36.2242C171.661 32.1694 164.698 21.4152 158.604 25.2769C154.806 27.6888 152.273 30.5353 149.978 33.0794C147.446 35.8008 147.763 40.0573 150.533 42.4946C153.302 44.9327 157.575 44.7096 159.949 41.9067Z" fill="black"/><path d="M26.2946 153.924C30.093 151.839 32.9415 149.314 35.4738 147.244C41.0922 142.666 32.8628 132.535 27.2444 137.077C24.4747 139.258 22.1797 141.141 19.964 142.276C16.7195 143.966 15.6118 148.013 17.3527 151.23C19.0145 154.446 23.1293 155.692 26.2946 153.924Z" fill="black"/><path d="M35.2381 39.0587C33.8137 39.2755 32.1522 39.6839 30.4113 40.9967C29.62 41.644 28.8282 42.5319 28.3534 43.4965C27.7994 44.4604 27.5619 45.4574 27.4036 46.3152C27.1662 48.0546 27.4834 49.2416 27.6416 50.1754C27.879 51.1052 28.116 51.8102 28.3534 52.4037C29.4612 55.8349 33.1808 57.6787 36.5835 56.5361C40.0654 55.3942 41.8853 51.6852 40.7774 48.2675C40.54 47.6565 40.3818 47.2118 40.3818 47.0805C40.3818 47.0646 40.3818 47.0543 40.3818 47.0496C40.3818 47.0543 40.3818 47.0464 40.3818 47.0543C40.3818 47.0702 40.3818 47.1121 40.3818 47.1865C40.3818 47.3345 40.3818 47.6178 40.3818 48.0577C40.3026 48.4922 40.1442 49.0952 39.8277 49.7005C39.5111 50.3067 39.0367 50.8717 38.5619 51.2357C38.0871 51.6076 37.6123 51.7952 37.3749 51.887C37.2166 51.9337 37.1376 51.9574 37.1376 51.9701C37.0585 51.9764 37.058 51.9796 37.058 51.9812C37.058 51.9827 37.058 51.9819 37.058 51.9803C40.5399 51.3932 42.9137 47.9984 42.4389 44.5276C41.9641 41.0568 38.7991 38.5349 35.2381 39.0587Z" fill="black"/><path d="M11.6559 99.2449C11.2602 100.12 10.8646 100.995 10.4689 101.871C7.62011 108.382 18.5402 113.855 22.022 107.642C22.4968 106.805 22.9715 105.967 23.4463 105.13C25.1872 101.957 23.6838 97.9234 20.4394 96.2988C17.1949 94.6734 13.0803 95.9205 11.6559 99.2449Z" fill="black"/><path d="M62.3003 105.368C63.329 106.158 64.3573 106.948 65.386 107.739C71.0045 112.093 78.9183 102.089 73.3789 97.6011C72.3502 96.786 71.4008 95.971 70.372 95.1559C67.6024 92.8967 63.487 93.4118 61.1921 96.2321C58.9764 99.0524 59.4515 103.176 62.3003 105.368Z" fill="black"/><path d="M177.123 127.58C176.886 128.541 176.728 129.502 176.49 130.463C175.699 133.991 177.915 137.495 181.476 138.28C184.957 139.066 188.519 136.844 189.31 133.308C189.468 132.344 189.706 131.378 189.864 130.413C191.447 123.356 178.706 120.537 177.123 127.58Z" fill="black"/><path d="M132.491 175.935C132.491 176.041 132.412 176.062 132.412 176.062C132.491 176.06 132.491 176.03 132.491 175.987C132.491 175.898 132.57 175.753 132.57 175.576C132.728 175.218 132.887 174.744 132.966 174.123C133.124 173.476 133.282 172.762 133.124 171.34C133.045 170.624 132.887 169.644 132.174 168.369C131.779 167.745 131.225 167.065 130.513 166.496C129.801 165.924 128.93 165.495 128.059 165.275C127.584 165.143 126.951 165.019 126.081 165.032C125.21 165.046 124.103 165.225 122.995 165.813C121.887 166.383 120.858 167.386 120.304 168.361C119.75 169.343 119.592 170.233 119.434 170.921C119.276 172.306 119.513 173.052 119.592 173.656C119.75 174.247 119.909 174.668 120.067 175.04C120.304 175.771 120.621 176.299 120.858 176.742C121.017 176.962 121.095 177.151 121.174 177.33C121.254 177.421 121.333 177.507 121.413 177.617C121.413 177.673 121.491 177.735 121.491 177.825C121.57 177.923 121.65 178.019 121.887 178.313C124.182 181.072 128.297 181.424 130.987 179.101C133.757 176.778 134.074 172.658 131.779 169.9C132.016 170.185 132.095 170.267 132.174 170.347C132.174 170.419 132.253 170.457 132.253 170.485C132.253 170.54 132.254 170.554 132.333 170.557C132.254 170.554 132.253 170.514 132.253 170.461C132.174 170.408 132.174 170.344 132.174 170.299C132.174 170.276 132.095 170.258 132.095 170.25C132.095 170.246 132.095 170.247 132.095 170.246C132.095 170.247 132.095 170.252 132.095 170.262C132.175 170.303 132.174 170.399 132.253 170.696C132.332 171.006 132.491 171.487 132.333 172.661C132.254 173.242 132.095 174.04 131.541 174.945C131.067 175.844 130.117 176.784 129.088 177.311C128.059 177.858 127.03 178.013 126.318 178.025C125.606 178.036 125.131 177.93 124.735 177.842C124.023 177.646 123.153 177.254 122.52 176.733C121.887 176.216 121.333 175.601 121.017 175.053C120.384 173.931 120.305 173.149 120.226 172.663C120.146 171.702 120.226 171.575 120.226 171.53C120.226 171.536 120.226 171.529 120.226 171.543C120.226 171.556 120.226 171.578 120.226 171.604C120.226 171.657 120.225 171.731 120.146 171.813C120.146 171.895 120.146 171.983 120.067 172.09C120.067 172.207 119.988 172.3 119.909 172.598C118.959 176.058 121.016 179.616 124.498 180.538C127.98 181.459 131.542 179.402 132.491 175.935Z" fill="black"/><path d="M72.0326 169.167C71.3995 169.207 70.8458 169.247 70.2127 169.286C66.6517 169.525 64.0405 172.746 64.4361 176.295C64.7527 179.843 67.8387 182.541 71.3997 182.136C72.0328 182.069 72.5868 182.002 73.1408 181.934C76.7018 181.534 79.2339 178.457 78.9173 174.977C78.6008 171.497 75.5145 168.93 72.0326 169.167Z" fill="black"/></svg>